<svg xmlns="http://www.w3.org/2000/svg" viewBox="0 0 24 24" fill="#EA4C89">
  <path d="M12 24C5.385 24 0 18.615 0 12S5.385 0 12 0s12 5.385 12 12-5.385 12-12 12zm10.12-10.358c-1.608-.37-3.08-.586-4.45-.658a24.8 24.8 0 0 1 1.1-2.707c2.04.85 3.71 2.05 4.65 3.365h-1.3zm-6.115 1.377a20.5 20.5 0 0 1-1.86 4.35c-2.266-.85-4.18-2.37-5.4-4.35 2.37-.1 4.66.1 6.86.9 0 0 .2-.45.4-.9zm-1.5-3.5a22.3 22.3 0 0 0-.95 2.35c-2.5-.85-5.1-1.1-7.7-.7.35-2.15 1.45-4.05 3-5.45 2.05 2.05 4.35 3.5 5.65 3.8zm1.85-1.15c-1.15-.35-3.25-1.7-5.1-3.55A9.96 9.96 0 0 1 12 2.05c2.35 0 4.5.85 6.15 2.25-.85 1.15-1.95 2.15-3.2 2.95-.35.2-.7.35-1.05.5zm-8.85 6.55c1.15-.15 2.35-.15 3.55 0 1.45 2.35 2.85 4.15 3.85 5.15A9.97 9.97 0 0 1 2.05 12c0 1.85.5 3.55 1.35 5.05.35-.25.7-.5 1.1-.75zm13.5 3.85c-.85-.85-2.05-2.45-3.35-4.55 1.15.1 2.45.3 3.85.6.15 1.35.05 2.65-.5 3.95z"/>
</svg>
