<svg xmlns="http://www.w3.org/2000/svg" viewBox="0 0 120 120" width="120" height="120">
  <rect width="120" height="120" rx="28" fill="#B34B1C"/>
  <!-- M path extracted from misho.svg wordmark, scaled to fit -->
  <path transform="translate(20, 23.5) scale(1.488)" d="M49.6001 42.752C51.0721 43.456 52.4161 44.224 53.7601 44.992V45.184H36.3521V44.992C37.6321 44.16 38.8481 43.456 40.3201 42.752L38.1441 8.89602H38.0801L24.7041 44.608H21.9521L9.15211 8.32002H9.08811L6.65611 40.96C8.64011 42.24 10.7521 43.648 12.4161 44.992V45.184H0.00010547V44.992C1.53611 43.712 3.64811 42.176 5.44011 40.96L8.06411 6.65602C6.20811 5.82402 4.73611 4.99202 3.13611 4.09602V3.84002H17.1521L27.4561 33.792L38.6561 3.84002H51.3921V4.09602C49.9841 4.92802 48.6401 5.76002 46.9761 6.46402L49.6001 42.752Z" fill="white"/>
</svg>
